<svg version="1.1" id="Layer_1" xmlns="http://www.w3.org/2000/svg" x="0" y="0" viewBox="0 0 368.4 88.5" style="enable-background:new 0 0 368.4 88.5" xml:space="preserve" preserveAspectRatio="xMinYMid meet"><style>.st1{fill:#85be57}</style><path d="M305.7 87.8c-.9 0-1.4-.4-1.8-1l-8.1-13v12.4c0 1.2-.3 1.7-1.6 1.7h-4.6c-1.3 0-1.6-.4-1.6-1.7V50.1c0-2.5 1.2-2.9 4.7-3.4 1-.2 3-.7 3.1.8v21.9c2.7-4.3 7.8-11.7 13.2-11.7 2.1 0 2.2 1.5 2.5 3.1.1.4.3 1.2.3 1.9 0 2.5-2.5 2.3-4.1 3-1.4.6-3.1 1.9-4.9 5.3l9.4 14.6c1.1 1.7 1.1 2.3-1.1 2.3l-5.4-.1zm-25.3 0H276c-1.5 0-1.9-.3-1.9-1.7V68.6c0-3-.3-5.8-4.3-5.8-4.3 0-4.5 3.5-4.5 5.8v17.5c0 1.2-.3 1.7-1.6 1.7H259c-1.3 0-1.6-.4-1.6-1.7V67.9c0-4.1.2-10.8 12.4-10.8 5.6 0 11.1 1.3 12.1 7.4.2 1.2.2 2.4.2 3.4v18.2c0 1.3-.4 1.7-1.7 1.7zm-97.8.5c-5.4 0-10.3-2.2-11.4-7.5-.1-.3-.1-.7-.1-1.1 0-1.7 1.9-1.9 3.2-2.2 2.9-.9 3.6-1.1 4.2 2.2.3 1.8 1.3 3.5 4.2 3.5 2.1 0 3.4-1.4 3.4-3.4 0-3.1-5-4.6-7.4-5.7-3.5-1.6-6.9-3.7-6.9-8.2 0-5.7 4.7-8.8 10.8-8.8 6.8 0 10.5 3.7 10.5 7.7 0 2-.8 2.2-3.4 2.5-2.9.4-3.1.1-3.7-2.5-.4-1.8-1.5-3-3.5-3-2.1 0-3.3 1.1-3.3 3 0 2.1 2.2 3.1 4.2 4 4.6 2.1 10.3 3.7 10.3 10 0 5.9-4.4 9.5-11.1 9.5zm-18.4-1.6c-1.5.6-4.5 1.6-9.6 1.6s-7.9-1.1-9.7-3c-2.2-2.2-2.2-5-2.2-7.9V60.5c0-2.6 3.4-2.7 5.2-3 2.2-.4 2.7-.4 2.7 1.4v18.5c0 2.6.2 5.5 4.5 5.5 1.3 0 2.6-.2 3.8-.8V60.7c0-2.6 3.4-2.7 5.2-3 2.2-.4 2.7-.4 2.7 1.4v24.3c-.2 2.2-.8 2.6-2.6 3.3zm-27.6-.6c0 1.2-.3 1.7-1.6 1.7h-4.9c-1.5 0-1.9-.3-1.9-1.7v-16h-12v16c0 1.2-.3 1.7-1.6 1.7h-5.2c-1.4 0-1.6-.5-1.6-1.7v-36c0-2 1.9-2.4 3.4-2.7.7-.1 1.5-.3 2.4-.4 2.3-.4 2.7.2 2.7 1.9v15.2h12V50.2c0-2 1.9-2.4 3.4-2.7.7-.1 1.5-.3 2.4-.4 2.3-.4 2.7.2 2.7 1.9v37.1h-.2zm199.9-11.5h-14.8c.1 4.2 2 8.2 6.4 8.2 4.1 0 4.8-3.4 6.7-3.4.8 0 1.6.9 2.2 1.4 1.5 1.5 1.9 2.2.4 3.7-1.4 1.4-4.8 3.8-10 3.8-7.2 0-13.3-4.1-13.3-15.9 0-7.4 3.5-15.1 13.2-15.1 9.9 0 11.7 8.1 11.7 14.7 0 2.4-1 2.6-2.5 2.6zm-9.6-12.2c-3.8 0-5 3.4-5.2 7.2h9.7c0-3.5-.3-7.2-4.5-7.2zM248.8 87c-2.7.9-5.5 1.5-8.4 1.5-6.5 0-12.4-2.6-12.4-9 0-9.9 12.4-10.3 15.7-10.3v-2.9c0-1.6-.2-4-3.4-4-2.2 0-3.2.9-3.8 2.7-.9 2.8-.9 2.8-3.8 2.4-2.7-.3-3.4-.7-3.4-2.2 0-5.5 5.1-8 11.4-8 10.4 0 10.6 7.1 10.6 9.1v17.2c.2 2.1-.1 2.7-2.5 3.5zm-5-13.5c-3.8.1-8.1 1-8.1 5.8 0 2.4 1.5 4.1 4.7 4.1 1.1 0 2.2-.1 3.3-.4l.1-9.5zm-34.3 14.8c-2.7 0-7.2-.7-9.7-2.1-1.4-.8-1.2-2.4-1.2-3.7V49.6c0-2.5 1.2-2.8 4.7-3.4 2.5-.4 3.2-.5 3.2 1.5v12c1.6-1.2 3.9-2.3 6.9-2.3 7.3 0 11.1 6 11.1 14 0 11.7-6.6 16.9-15 16.9zm1.4-25.1c-1.9 0-3.5 1-4.4 1.8v17.4c.5.2 1.6.5 3 .5 2 0 7-.8 7-10.4 0-6.9-2.5-9.3-5.6-9.3zm155.8 24.6h-4.4c-1.5 0-1.9-.3-1.9-1.7V68.6c0-3-.3-5.8-4.3-5.8-4.3 0-4.5 3.5-4.5 5.8v17.5c0 1.2-.3 1.7-1.6 1.7h-4.7c-1.3 0-1.6-.4-1.6-1.7V67.9c0-4.1.2-10.8 12.4-10.8 5.6 0 11.1 1.3 12.1 7.4.2 1.2.2 2.4.2 3.4v18.2c0 1.3-.4 1.7-1.7 1.7z" style="fill:#68777e"/><path class="st1" d="M22.7 47.7c3.6.7 2.1 2.6 3.4 6.7 1.8 5.7 6.2.2 5.6-3.4-.3-1.8-1.5-2.7-2.8-4.1-2.6-2.9-7.7-4.6-11.7-4.6-4.4 0-7.8-.6-8.1-2.1-.2-.9.4-2 .5-3.2.5-3.6 1.1-7.7-4.3-7.7-3.4 0-4.8 2.4-4.8 4.9s1.6 6 3.5 6.2c2.2.3 1.9 1.6-.1 3.1-1.1.8-1.7 1.6-2.5 3.2-1.9 3.8 1.3 11.8-.6 17.7-1.5 4.5-1.1 7.9 2.8 10.4 2.9 1.8 7.1-5.8 3.7-9.3-.4-.4-1.7-2.2-1.9-3.4-.7-3.7.7-10.5 3.7-10.5 2.2 0 3.9 2.4 1.8 7.5-.7 1.7 0 4.3.4 6.1.8 2.9.2 5.6-.3 7.8-.8 3.5-1.5 5.5-3.4 5.6-2 .1-4.7.3-6.1 1.9C.3 81.9.2 84.1.3 85.2c.4 2.3 3.1 3.3 7.7 3 2-.1 4.2.1 6.1-.3 3.9-.7 4-2.5 3.4-8.2-.3-2.2-.3-5.3-1.1-8.5-1.5-5.9.8-11.8 2.9-10.3 4.4 3.1-2.2 11.6 2.9 13.6 1.7.7 3.6-1.2 4.5-2.5 2-3 3.4-7-.1-7.3-5.3-.3 2-6.8-4.6-8.8-3.7-1.4-4.1-9.2.7-8.2z"/><path class="st1" d="M62 18.4c-.5-3.8-5.1-5.6-7.5-8C52 8 45.6 9 48.4 13c.9 1.3 1.5 1.1 3.3 1 2.9-.2 5.5 6-1.7 3.8-4.8-1.5-7.9-.1-8.8-3-.8-2.7 7.2-4.3 4.5-10.3-1-2.2-5.5-7.5-10.7-2.2-4.1 4.1-3.9 7.7.2 9.6 3.5 1.6.2 3.2-2 2.5-2.3-.6-5.6-4.6-11.4-.8-2.8 1.8-4.2 3.6-6.9 5.5-3.5 2.4-3.6 5.7-2.4 6.6 1.3.9 4.8.8 6.5-.5 1.8-1.3-.3-3.3 1.2-5.1 1.9-2.2 6.5-4.1 8.5-2.5.9.7 1.7 3.1.7 4.8-1.2 2.2-2.9 3.4-6 4.5-3.7 1.4-4.7 1.3-5.8 1.5-1.5.2-3.5.6-4.6 2.6-1.8 3.2 1.5 4.5 4.1 6.5 2.2 1.7 6.6 3.9 7.8 3 1.1-.8 1.7-3.3-1.1-5.8-2.7-2.3 1.5-3.1 4.6-5.1 1.7-1.1 3.1-1.4 3.8-1.4 2.8.1 3.8 4.8 2.1 6.4-1 .9-2.1.5-3.6 1.5-4.6 2.9.2 5.3 1.7 8 1.3 2.6 3.3 6.5 5.7 4.7 1.5-1.1 1.3-2.8 1.1-4.5-.8-6.1 2.9-4.8 2.7-9.5-.1-2-2.5-3.7-2.8-6-.5-3.1 2.6-6.9 6.4-7.3 2-.2 6.5.1 8.6.6 4.7 1.4 8.4 1.1 7.9-3.7z"/><path class="st1" d="M80.2 45.1c0-4.2-1.6-5.3-4.5-6.5-2-.8-4.2-1.6-6 .9-.5.7-1.9 1.3-3.4 1.3-1.7 0-2.6-1.8-2.1-4.4.2-1.1.7-2.3 1.4-3.4.5-.8 1.2-1.5 1.9-2 2.1-1.5 6.7-2.5 5.9 1.6-.4 2 1.9 3.3 3.6 3.9 2.9.9 3.6-4.3 1.6-5.7-1.4-1-2.3-2.3-3.8-3.6-3.4-3.1-8.3-4.2-10.6-1.5-1.7 2-1.6 2.7-3.1 5.6-1.2 2.5-5.1 3.3-4.4 1 .4-1.1 1-5.9-2.3-7.2-1.7-.6-3.9-.4-5.7.4-2 1-3.9 2.8-3.8 5.2.1 5.6 3.8 7.7 6.1 6.1 2.3-1.5 3.8.3 2.2 1.5-1.7 1.3-5.9 1.7-8.3 3.7-.8.7-1.7 1.5-2.3 3.3-.5 1.5-.5 2.8-.7 4.1-.9 4.5 1.7 6.3 5.3 5.7 4.7-.9.3-4.1.2-6.7-.1-2.7.8-3.9 2.7-4.4 1.1-.3 3-.3 3.5 1.4.5 2 .3 3.8-.1 5.6-.4 1.6-1.4 3.3-2.2 4.7-1 1.8-2.3 2.8-3.2 4.7-1.5 3.4 2.4 11.2 6.2 8.1 1.6-1.3 2.1-2.1 2.6-3.5.5-1.6.4-4.3-.6-7.9-.9-3.3 2.1-11 4.8-12.1 2.4-.9 3 1.2 4.5 2.2.8.5 2.6.9 3.8-.5 6-6.7 3.8-.4 4.1 1.9.3 2.8 2.9 3.9 4.4 3.4 1-.3 1.6-1.5 1.9-2.9.5-2.7.4-3.2.4-4z"/><path class="st1" d="M80.4 81.1c-.4-7.4-.4-9.2-1.7-12.3-.8-1.9-1.6-3.2-.8-4.3 2.4-3 2.9-5.6 1.9-7.3-1.7-2.8-4.9-4.3-7.1-3.7-3.7 1-5.4 6.8-2.9 9.4 2.1 2.2 4 2.3 4.2 3.4.3 2.2-1.1 2.6-2.9 2.9-1.2.2-4.7.1-5.5-3.5-.8-3.3-2.5-5.3-.2-7 .9-.7 1.2-1.6 1.7-3.5 1-3.2 0-4.8-3.2-4.4-4.7.5-4.9 3.8-3.7 6.6 2.2 5.1-1.4 8.6-.2 11.7 1.6 4 8.8 4.6 11.1 6.8 1.1 1 .6 3.1-.3 4.1-4.5 4.8-9.4.7-9.8-2.4-.6-4.2-3.6-6.6-5.6-6.2-2.1.3-2.8 2.8-2.4 5.8.2 1.7 1.2 3.5 1.6 5.8.7 4 3 6.3 5.5 4.3 7.4-5.6 21 8.6 20.3-6.2zm-31.9 1.4c1.6-3 2.1-5.7.6-6.6-1.8-1-3.2.1-4.8 2.5-2.1 3-7 .1-7.2-1.5-.2-2 .7-2 3.2-3.2 3.1-1.5 3.7.5 5.4.5 2.8-.1 2.8-3.4 2-5.6-.4-1-.9-1.6-1.5-1.8-1.9-.5-3.6.7-4.4 1.6-2.3 2.4-4.5.7-4.2-.6.1-.8 1.8-1.7 2.7-2.3 2.6-1.8 3.9-4.2 2.7-7-1.1-2.5-2.9-4-4.2-4.3-2.2-.6-4.3.6-5.6 1.6-3.4 2.7-2.8 7.6-.3 9.2 3.9 2.3-1.7 6.3-5 10.1-2.3 2.6-6.5 7.3-4.3 10.6 1.8 2.8 5.2 2.6 6.6 2.1 1.9-.7 2.3-1.7 4-2.9 1.8-1.3 3.1-1.7 5.9 1.8 1.3 1.6 3.8 2.2 5.7.6 1.2-1.1 1.6-2.6 2.7-4.8z"/></svg>